<svg xmlns="http://www.w3.org/2000/svg" width="800" height="800" viewBox="0 0 800 800" role="img" aria-label="ม็อกอัพโปโลด้านหลัง">
  <rect width="800" height="800" fill="#f1f5f9"/>
  <path d="M250 170 L335 138 Q400 168 465 138 L550 170 L610 250 L545 300 L545 660 Q400 680 255 660 L255 300 L190 250 Z" fill="#1b2a4a"/>
  <path d="M250 170 L190 250 L255 300 L262 200 Z" fill="#16233d"/>
  <path d="M550 170 L610 250 L545 300 L538 200 Z" fill="#16233d"/>
  <path d="M335 138 Q400 168 465 138 L462 126 Q400 152 338 126 Z" fill="#f8fafc"/>
  <!-- ลาย DTF เต็มแผ่นหลัง — ต้องอยู่ในตัวเสื้อ (x 255-545) -->
  <g transform="translate(400 420)">
    <circle cx="0" cy="-60" r="46" fill="none" stroke="#12a594" stroke-width="9"/>
    <path d="M-22 -60 H22 M0 -82 V-38" stroke="#12a594" stroke-width="14" stroke-linecap="round"/>
    <text x="0" y="22" text-anchor="middle" font-family="Helvetica, Arial, sans-serif" font-size="33" font-weight="700" fill="#f8fafc" letter-spacing="1">BKK MEDICAL</text>
    <text x="0" y="54" text-anchor="middle" font-family="Helvetica, Arial, sans-serif" font-size="15" fill="#93c5fd" letter-spacing="3">SUPPLY &amp; SERVICE</text>
    <path d="M-120 78 H120" stroke="#12a594" stroke-width="5"/>
    <text x="0" y="106" text-anchor="middle" font-family="Helvetica, Arial, sans-serif" font-size="15" fill="#e2e8f0">02-116-4820 · bkkmedical.co.th</text>
  </g>
  <g stroke="#94a3b8" stroke-width="2" stroke-dasharray="7 6">
    <rect x="272" y="300" width="256" height="256" fill="none"/>
  </g>
</svg>
